<mxfile host="65bd71144e">
    <diagram id="mJtwf5pUPDsy-Glc759V" name="Page-1">
        <mxGraphModel dx="1454" dy="571" grid="1" gridSize="10" guides="1" tooltips="1" connect="1" arrows="1" fold="1" page="1" pageScale="1" pageWidth="850" pageHeight="1100" math="0" shadow="0">
            <root>
                <mxCell id="0"/>
                <mxCell id="1" parent="0"/>
                <mxCell id="6" value="" style="edgeStyle=none;html=1;fontFamily=Comic Sans MS;fontSize=20;fontColor=#000000;" parent="1" source="4" target="5" edge="1">
                    <mxGeometry relative="1" as="geometry"/>
                </mxCell>
                <mxCell id="4" value="&lt;font style=&quot;font-size: 20px;&quot; color=&quot;#000000&quot;&gt;Start&lt;/font&gt;" style="ellipse;whiteSpace=wrap;html=1;labelBackgroundColor=none;labelBorderColor=none;fontFamily=Comic Sans MS;fillColor=#f5f5f5;strokeColor=#666666;fontColor=#333333;fontSize=20;fontStyle=1" parent="1" vertex="1">
                    <mxGeometry x="365" y="110" width="120" height="80" as="geometry"/>
                </mxCell>
                <mxCell id="8" value="" style="edgeStyle=none;html=1;fontFamily=Comic Sans MS;fontSize=20;fontColor=#000000;" parent="1" source="5" target="7" edge="1">
                    <mxGeometry relative="1" as="geometry"/>
                </mxCell>
                <mxCell id="5" value="Get a,b,h" style="shape=parallelogram;perimeter=parallelogramPerimeter;whiteSpace=wrap;html=1;fixedSize=1;labelBackgroundColor=none;labelBorderColor=none;fontFamily=Comic Sans MS;fontSize=20;fontColor=#333333;fillColor=#f5f5f5;strokeColor=#666666;fontStyle=1" parent="1" vertex="1">
                    <mxGeometry x="338" y="230" width="175" height="70" as="geometry"/>
                </mxCell>
                <mxCell id="10" value="" style="edgeStyle=none;html=1;fontFamily=Comic Sans MS;fontSize=20;fontColor=#000000;" parent="1" source="7" target="9" edge="1">
                    <mxGeometry relative="1" as="geometry"/>
                </mxCell>
                <mxCell id="7" value="Area = ((a+b)/2.0) * h" style="rounded=0;whiteSpace=wrap;html=1;labelBackgroundColor=none;labelBorderColor=none;fontFamily=Comic Sans MS;fontSize=20;fontColor=#333333;fillColor=#f5f5f5;strokeColor=#666666;fontStyle=1" parent="1" vertex="1">
                    <mxGeometry x="305.75" y="340" width="239.5" height="70" as="geometry"/>
                </mxCell>
                <mxCell id="12" value="" style="edgeStyle=none;html=1;fontFamily=Comic Sans MS;fontSize=20;fontColor=#000000;" parent="1" source="9" target="11" edge="1">
                    <mxGeometry relative="1" as="geometry"/>
                </mxCell>
                <mxCell id="9" value="Print Area" style="shape=parallelogram;perimeter=parallelogramPerimeter;whiteSpace=wrap;html=1;fixedSize=1;labelBackgroundColor=none;labelBorderColor=none;fontFamily=Comic Sans MS;fontSize=20;fontColor=#333333;fillColor=#f5f5f5;strokeColor=#666666;fontStyle=1" parent="1" vertex="1">
                    <mxGeometry x="338" y="440" width="175" height="70" as="geometry"/>
                </mxCell>
                <mxCell id="11" value="&lt;font style=&quot;font-size: 20px;&quot; color=&quot;#000000&quot;&gt;End&lt;/font&gt;" style="ellipse;whiteSpace=wrap;html=1;labelBackgroundColor=none;labelBorderColor=none;fontFamily=Comic Sans MS;fillColor=#f5f5f5;strokeColor=#666666;fontColor=#333333;fontSize=20;fontStyle=1" parent="1" vertex="1">
                    <mxGeometry x="365" y="540" width="120" height="80" as="geometry"/>
                </mxCell>
            </root>
        </mxGraphModel>
    </diagram>
</mxfile>